<?xml version="1.0" encoding="UTF-8" standalone="no"?>
<!-- Created with Inkscape (http://www.inkscape.org/) -->

<!-- Created By Yarik_superpro -->

<svg
   width="144"
   height="144"
   viewBox="0 0 38.1 38.100001"
   version="1.1"
   id="svg1"
   xml:space="preserve"
   xmlns="http://www.w3.org/2000/svg"
   xmlns:svg="http://www.w3.org/2000/svg"
   xmlns:rdf="http://www.w3.org/1999/02/22-rdf-syntax-ns#"
   xmlns:cc="http://creativecommons.org/ns#"
   xmlns:dc="http://purl.org/dc/elements/1.1/"><title
     id="title35">Roblox Jump Button Recreation</title><defs
     id="defs1"><clipPath
       clipPathUnits="userSpaceOnUse"
       id="clipPath9"><g
         id="use9"><g
           id="g10"
           style="display:inline;opacity:1;isolation:isolate;mix-blend-mode:normal;fill:#ffffff;fill-opacity:0.2"><path
             id="path9"
             style="display:inline;opacity:1;mix-blend-mode:normal;fill:#ffffff;fill-opacity:0.2;fill-rule:nonzero;stroke:#000000;stroke-width:0;stroke-linejoin:bevel;stroke-dasharray:none;stroke-opacity:0;paint-order:normal"
             d="m 19.05,12.435417 -7.805208,8.73125 h 5.291667 l -2e-6,2.696444 h 2.513542 2.513541 l 3e-6,-2.696444 h 5.291667 z" /><path
             id="path10"
             style="display:inline;opacity:1;mix-blend-mode:normal;fill:#ffffff;fill-opacity:0.2;fill-rule:nonzero;stroke:#000000;stroke-width:0;stroke-linejoin:bevel;stroke-dasharray:none;stroke-opacity:0;paint-order:normal"
             d="m 16.536459,24.209379 -2e-6,0.976652 h 5.027083 l 3e-6,-0.976652 z" /></g></g></clipPath><clipPath
       clipPathUnits="userSpaceOnUse"
       id="clipPath38"><path
         id="path38"
         style="display:none;mix-blend-mode:normal;fill:#ffffff;fill-opacity:0.2;fill-rule:nonzero;stroke:none;stroke-width:0;stroke-linejoin:bevel;stroke-dasharray:none;stroke-opacity:0;paint-order:normal"
         d="m -19.05,13.027112 a 1.1826075,1.1826075 0 0 1 0.8816,0.394808 l 5.160408,5.772257 a 1.183683,1.183683 0 0 1 -0.882633,1.97249 h -2.645833 v 2.696476 H -19.05 -21.563542 v -2.696476 h -2.645833 a 1.1836828,1.1836828 0 0 1 -0.882633,-1.97249 L -19.9316,13.42192 a 1.1826075,1.1826075 0 0 1 0.8816,-0.394808 z m 2.513542,11.3807 v 0.661459 h -5.027084 v -0.645956 z" /><path
         id="lpe_path-effect38"
         style="display:inline;mix-blend-mode:normal;fill:#ffffff;fill-opacity:0.2;fill-rule:nonzero;stroke:none;stroke-width:0;stroke-linejoin:bevel;stroke-dasharray:none;stroke-opacity:0;paint-order:normal"
         class="powerclip"
         d="M -40.718748,-2.6187496 H 2.6187496 V 40.718748 H -40.718748 Z M -19.05,13.027112 a 1.1826075,1.1826075 0 0 0 -0.8816,0.394808 l -5.160408,5.772257 a 1.1836828,1.1836828 0 0 0 0.882633,1.97249 h 2.645833 v 2.696476 h 2.513542 2.513542 v -2.696476 h 2.645833 a 1.183683,1.183683 0 0 0 0.882633,-1.97249 L -18.1684,13.42192 A 1.1826075,1.1826075 0 0 0 -19.05,13.027112 Z m 2.513542,11.3807 -5.027084,0.0155 v 0.645956 h 5.027084 z" /></clipPath></defs><g
     id="layer1"
     style="display:inline"><path
       id="path1"
       style="display:inline;fill:#000000;fill-opacity:0.501961;stroke:none;stroke-width:0"
       transform="scale(-1,1)"
       d="M -2.3812504,19.049999 A 16.668749,16.668749 0 0 1 -19.049999,35.718748 16.668749,16.668749 0 0 1 -35.718748,19.049999 16.668749,16.668749 0 0 1 -19.049999,2.3812504 16.668749,16.668749 0 0 1 -2.3812504,19.049999 Z"
       clip-path="url(#clipPath38)" /><circle
       style="display:inline;fill:none;fill-opacity:0;stroke:#ffffff;stroke-width:1.32291667;stroke-linejoin:bevel;stroke-dasharray:none;stroke-opacity:0.2;paint-order:normal"
       id="circle34"
       cx="19.049999"
       cy="19.049999"
       r="17.330212" /><circle
       style="display:inline;fill:none;fill-opacity:0;stroke:#000000;stroke-width:1.05853;stroke-linejoin:bevel;stroke-dasharray:none;stroke-opacity:0.501961;paint-order:normal"
       id="circle1"
       cx="19.049999"
       cy="19.049999"
       r="18.520832" /><g
       id="g14"
       style="display:inline;opacity:1;mix-blend-mode:normal;fill:#ffffff;fill-opacity:0.2"><path
         id="path13"
         style="display:inline;opacity:1;mix-blend-mode:normal;fill:#ffffff;fill-opacity:0.2;fill-rule:nonzero;stroke:none;stroke-width:0;stroke-linejoin:bevel;stroke-dasharray:none;stroke-opacity:0;paint-order:normal"
         d="m 18.168323,13.4217 -5.160177,5.772401 a 1.183683,1.183683 65.897391 0 0 0.882479,1.972566 h 2.645834 l -2e-6,2.696444 h 2.513542 2.513541 l 3e-6,-2.696444 h 2.645834 a 1.1836828,1.1836828 114.1026 0 0 0.882479,-1.972566 L 19.931677,13.4217 a 1.1826075,1.1826075 180 0 0 -1.763354,0 z" /><path
         id="path14"
         style="display:inline;opacity:1;mix-blend-mode:normal;fill:#ffffff;fill-opacity:0.2;fill-rule:nonzero;stroke:none;stroke-width:0;stroke-linejoin:bevel;stroke-dasharray:none;stroke-opacity:0;paint-order:normal"
         d="m 16.536459,24.407816 1e-6,0.661456 h 5.027083 l 3e-6,-0.645923 z" /></g></g><metadata
     id="metadata35"><rdf:RDF><cc:Work
         rdf:about=""><dc:title>Roblox Jump Button Recreation</dc:title><dc:date>11.08.2025</dc:date><dc:creator><cc:Agent><dc:title>Yarik_superpro</dc:title></cc:Agent></dc:creator><cc:license
           rdf:resource="Copyright 2025 Yarik_superpro Permission is hereby granted, free of charge, to any person obtaining a copy of this software and associated documentation files (the “Software”), to deal in the Software without restriction, including without limitation the rights to use, copy, modify, merge, publish, distribute, sublicense, and/or sell copies of the Software, and to permit persons to whom the Software is furnished to do so, subject to the following conditions:&#10;&#10;The above copyright notice and this permission notice shall be included in all copies or substantial portions of the Software.&#10;&#10;THE SOFTWARE IS PROVIDED “AS IS”, WITHOUT WARRANTY OF ANY KIND, EXPRESS OR IMPLIED, INCLUDING BUT NOT LIMITED TO THE WARRANTIES OF MERCHANTABILITY, FITNESS FOR A PARTICULAR PURPOSE AND NONINFRINGEMENT. IN NO EVENT SHALL THE AUTHORS OR COPYRIGHT HOLDERS BE LIABLE FOR ANY CLAIM, DAMAGES OR OTHER LIABILITY, WHETHER IN AN ACTION OF CONTRACT, TORT OR OTHERWISE, ARISING FROM, OUT OF OR IN CONNECTION WITH THE SOFTWARE OR THE USE OR OTHER DEALINGS IN THE SOFTWARE." /></cc:Work></rdf:RDF></metadata></svg>
