<?xml version="1.0" encoding="UTF-8" standalone="no"?>
<!-- Created with Inkscape (http://www.inkscape.org/) -->

<svg
   width="420"
   height="420"
   viewBox="0 0 111.125 111.125"
   version="1.1"
   id="svg1"
   xml:space="preserve"
   inkscape:version="1.4.2 (f4327f4, 2025-05-13)"
   sodipodi:docname="TheNewLuauOrderLogo.svg"
   inkscape:export-filename="TheNewLuauOrderLogo.png"
   inkscape:export-xdpi="182.88"
   inkscape:export-ydpi="182.88"
   xmlns:inkscape="http://www.inkscape.org/namespaces/inkscape"
   xmlns:sodipodi="http://sodipodi.sourceforge.net/DTD/sodipodi-0.dtd"
   xmlns:xlink="http://www.w3.org/1999/xlink"
   xmlns="http://www.w3.org/2000/svg"
   xmlns:svg="http://www.w3.org/2000/svg"
   xmlns:rdf="http://www.w3.org/1999/02/22-rdf-syntax-ns#"
   xmlns:cc="http://creativecommons.org/ns#"
   xmlns:dc="http://purl.org/dc/elements/1.1/"><title
     id="title21">The New Luau Order Logo</title><sodipodi:namedview
     id="namedview1"
     pagecolor="#ffffff"
     bordercolor="#000000"
     borderopacity="0.25"
     inkscape:showpageshadow="2"
     inkscape:pageopacity="0.0"
     inkscape:pagecheckerboard="0"
     inkscape:deskcolor="#d1d1d1"
     inkscape:document-units="px"
     inkscape:zoom="0.95315798"
     inkscape:cx="239.72941"
     inkscape:cy="203.00937"
     inkscape:window-width="1920"
     inkscape:window-height="1017"
     inkscape:window-x="-8"
     inkscape:window-y="-8"
     inkscape:window-maximized="1"
     inkscape:current-layer="layer1" /><defs
     id="defs1"><linearGradient
       id="linearGradient5"
       inkscape:collect="always"><stop
         style="stop-color:#ffffff;stop-opacity:1;"
         offset="0"
         id="stop5" /><stop
         style="stop-color:#ffffff;stop-opacity:0;"
         offset="1"
         id="stop8" /></linearGradient><linearGradient
       id="linearGradient6"
       inkscape:collect="always"><stop
         style="stop-color:#f60000;stop-opacity:1;"
         offset="0.55491328"
         id="stop6" /><stop
         style="stop-color:#ff5454;stop-opacity:0;"
         offset="1"
         id="stop7" /></linearGradient><inkscape:perspective
       sodipodi:type="inkscape:persp3d"
       inkscape:vp_x="-12.003356 : 68.238488 : 1"
       inkscape:vp_y="0 : 1000 : 0"
       inkscape:vp_z="87.996646 : 68.238488 : 1"
       inkscape:persp3d-origin="37.996645 : 51.571821 : 1"
       id="perspective25" /><inkscape:perspective
       sodipodi:type="inkscape:persp3d"
       inkscape:vp_x="8.9359708 : 65.925341 : 1"
       inkscape:vp_y="0 : 1000 : 0"
       inkscape:vp_z="108.93597 : 65.925341 : 1"
       inkscape:persp3d-origin="58.935971 : 49.258674 : 1"
       id="perspective24" /><inkscape:perspective
       sodipodi:type="inkscape:persp3d"
       inkscape:vp_x="0 : 61.125 : 1"
       inkscape:vp_y="0 : 1000 : 0"
       inkscape:vp_z="100 : 61.125 : 1"
       inkscape:persp3d-origin="50 : 44.458333 : 1"
       id="perspective7" /><linearGradient
       id="swatch41"
       inkscape:swatch="solid"><stop
         style="stop-color:#20fe46;stop-opacity:1;"
         offset="0"
         id="stop41" /></linearGradient><linearGradient
       id="linearGradient9"
       inkscape:collect="always"><stop
         style="stop-color:#fe931b;stop-opacity:1;"
         offset="0"
         id="stop11" /><stop
         style="stop-color:#894a08;stop-opacity:1;"
         offset="1"
         id="stop10" /></linearGradient><linearGradient
       id="swatch15"
       inkscape:swatch="solid"><stop
         style="stop-color:#000000;stop-opacity:1;"
         offset="0"
         id="stop16" /></linearGradient><linearGradient
       id="swatch14"><stop
         style="stop-color:#fe931b;stop-opacity:1;"
         offset="0"
         id="stop42" /><stop
         style="stop-color:#844706;stop-opacity:1;"
         offset="1"
         id="stop15" /></linearGradient><radialGradient
       inkscape:collect="always"
       xlink:href="#linearGradient9"
       id="radialGradient11-4"
       cx="60.603474"
       cy="31.80924"
       fx="60.603474"
       fy="31.80924"
       r="2.8140273"
       gradientTransform="matrix(1.9999996,0,0,2.4002808,-60.603449,-45.594201)"
       gradientUnits="userSpaceOnUse" /><radialGradient
       inkscape:collect="always"
       xlink:href="#swatch14"
       id="radialGradient41-7"
       cx="68.484711"
       cy="30.538609"
       fx="68.484711"
       fy="30.538609"
       r="0.75482702"
       gradientTransform="matrix(1.9996877,8.9470677,-4.3657016,0.97574312,64.859129,-614.61854)"
       gradientUnits="userSpaceOnUse" /><radialGradient
       inkscape:collect="always"
       xlink:href="#linearGradient6"
       id="radialGradient7"
       cx="73.802139"
       cy="38.107418"
       fx="73.802139"
       fy="38.107418"
       r="8.2956047"
       gradientUnits="userSpaceOnUse"
       gradientTransform="matrix(1.1792097,-0.31596785,0.31596793,1.1792099,-15.225072,2.1710411)"
       spreadMethod="pad" /><linearGradient
       inkscape:collect="always"
       xlink:href="#linearGradient5"
       id="linearGradient8"
       x1="10.195905"
       y1="32.599445"
       x2="54.946475"
       y2="32.599445"
       gradientUnits="userSpaceOnUse" /></defs><g
     inkscape:label="Layer 1"
     inkscape:groupmode="layer"
     id="layer1"><circle
       style="display:inline;fill:#4e90b1;fill-opacity:1;stroke:#2d5466;stroke-width:1.04576;stroke-linecap:round;stroke-linejoin:round;stroke-dasharray:none;stroke-opacity:1;paint-order:stroke fill markers"
       id="path7"
       cx="55.5625"
       cy="55.5625"
       r="55.039623" /><g
       style="display:none;fill:none"
       id="g1"
       transform="matrix(2.3046228,0,0,2.3046228,-14.465264,-12.687179)"
       sodipodi:insensitive="true"><rect
         x="17.330101"
         y="1.0557097"
         width="39.370083"
         height="39.370083"
         transform="rotate(15)"
         fill="#00a2ff"
         id="rect1"
         style="stroke-width:0.984252" /><rect
         x="40.643799"
         y="17.3228"
         width="8"
         height="8"
         transform="rotate(15,40.6438,17.3228)"
         fill="#ffffff"
         id="rect2" /><path
         d="m 13.2989,39.8636 4.8815,1.308 -0.2976,1.1108 -6.2469,-1.6739 2.7601,-10.3007 1.3654,0.3659 z m 10.5455,3.2048 C 23.1745,43.5309 22.3467,43.6301 21.361,43.366 20.5451,43.1474 19.9857,42.7447 19.6829,42.1581 19.386,41.568 19.3597,40.8077 19.604,39.8773 l 1.3345,-4.9805 1.3088,0.3507 -1.325,4.9451 c -0.3109,1.1603 0.0053,1.8668 0.9486,2.1195 0.9998,0.268 1.7647,0.0736 2.2945,-0.5832 l 1.4919,-5.5677 1.3088,0.3507 -2.0511,7.6547 -1.2451,-0.3336 z m 7.7915,2.8991 c -0.035,-0.1711 -0.0243,-0.4564 0.0322,-0.8558 -0.7778,0.469 -1.5888,0.5904 -2.433,0.3641 -0.7546,-0.2022 -1.318,-0.5806 -1.69,-1.1352 -0.3661,-0.5581 -0.4613,-1.165 -0.2856,-1.8206 0.2135,-0.797 0.6809,-1.334 1.4022,-1.6109 0.7272,-0.2803 1.6403,-0.2732 2.7392,0.0212 l 1.2734,0.3413 0.1612,-0.6014 c 0.1225,-0.4575 0.0831,-0.8573 -0.1184,-1.1994 -0.2003,-0.3469 -0.5669,-0.5917 -1.0999,-0.7345 -0.4669,-0.1251 -0.89,-0.1121 -1.2691,0.039 -0.3792,0.1512 -0.6137,0.3942 -0.7034,0.7291 l -1.3159,-0.3526 c 0.1024,-0.3821 0.3354,-0.7139 0.699,-0.9956 0.3696,-0.2852 0.8133,-0.4696 1.3311,-0.5533 0.5225,-0.0824 1.0621,-0.049 1.6186,0.1001 0.882,0.2363 1.5135,0.6431 1.8947,1.2204 0.3824,0.5726 0.4794,1.2482 0.291,2.0268 l -0.944,3.5231 c -0.1883,0.7028 -0.2485,1.2857 -0.1804,1.7488 l -0.0304,0.1132 z M 29.7313,44.388 c 0.4103,0.11 0.8279,0.1081 1.2526,-0.0056 0.4248,-0.1136 0.7652,-0.3181 1.0213,-0.6135 l 0.4208,-1.5706 -1.0258,-0.2748 c -1.6036,-0.4297 -2.5312,-0.1753 -2.7826,0.7633 -0.11,0.4103 -0.0592,0.7677 0.1525,1.0721 0.2116,0.3044 0.532,0.5141 0.9612,0.6291 z m 9.9886,2.9343 c -0.6698,0.4625 -1.4976,0.5616 -2.4834,0.2975 -0.8159,-0.2186 -1.3753,-0.6212 -1.6781,-1.2079 -0.2969,-0.5901 -0.3232,-1.3503 -0.0789,-2.2807 l 1.3345,-4.9806 1.3088,0.3507 -1.325,4.9452 c -0.3109,1.1602 0.0053,1.8667 0.9486,2.1195 0.9999,0.2679 1.7647,0.0735 2.2945,-0.5833 l 1.4919,-5.5677 1.3088,0.3507 -2.0511,7.6548 -1.2451,-0.3337 z"
         fill="#ffffff"
         id="path2" /></g><g
       style="display:none;fill:none"
       id="g4"
       transform="matrix(2.2260947,-0.59648028,0.59648028,2.2260947,-29.743441,7.7628922)"
       sodipodi:insensitive="true"><rect
         x="17.330101"
         y="1.0557097"
         width="39.370083"
         height="39.370083"
         transform="rotate(15)"
         fill="#00a2ff"
         id="rect3"
         style="display:inline;stroke-width:0.984252" /><rect
         x="40.643799"
         y="17.3228"
         width="8"
         height="8"
         transform="rotate(15,40.6438,17.3228)"
         fill="#ffffff"
         id="rect4"
         style="display:inline" /><path
         d="m 13.2989,39.8636 4.8815,1.308 -0.2976,1.1108 -6.2469,-1.6739 2.7601,-10.3007 1.3654,0.3659 z m 10.5455,3.2048 C 23.1745,43.5309 22.3467,43.6301 21.361,43.366 20.5451,43.1474 19.9857,42.7447 19.6829,42.1581 19.386,41.568 19.3597,40.8077 19.604,39.8773 l 1.3345,-4.9805 1.3088,0.3507 -1.325,4.9451 c -0.3109,1.1603 0.0053,1.8668 0.9486,2.1195 0.9998,0.268 1.7647,0.0736 2.2945,-0.5832 l 1.4919,-5.5677 1.3088,0.3507 -2.0511,7.6547 -1.2451,-0.3336 z m 7.7915,2.8991 c -0.035,-0.1711 -0.0243,-0.4564 0.0322,-0.8558 -0.7778,0.469 -1.5888,0.5904 -2.433,0.3641 -0.7546,-0.2022 -1.318,-0.5806 -1.69,-1.1352 -0.3661,-0.5581 -0.4613,-1.165 -0.2856,-1.8206 0.2135,-0.797 0.6809,-1.334 1.4022,-1.6109 0.7272,-0.2803 1.6403,-0.2732 2.7392,0.0212 l 1.2734,0.3413 0.1612,-0.6014 c 0.1225,-0.4575 0.0831,-0.8573 -0.1184,-1.1994 -0.2003,-0.3469 -0.5669,-0.5917 -1.0999,-0.7345 -0.4669,-0.1251 -0.89,-0.1121 -1.2691,0.039 -0.3792,0.1512 -0.6137,0.3942 -0.7034,0.7291 l -1.3159,-0.3526 c 0.1024,-0.3821 0.3354,-0.7139 0.699,-0.9956 0.3696,-0.2852 0.8133,-0.4696 1.3311,-0.5533 0.5225,-0.0824 1.0621,-0.049 1.6186,0.1001 0.882,0.2363 1.5135,0.6431 1.8947,1.2204 0.3824,0.5726 0.4794,1.2482 0.291,2.0268 l -0.944,3.5231 c -0.1883,0.7028 -0.2485,1.2857 -0.1804,1.7488 l -0.0304,0.1132 z M 29.7313,44.388 c 0.4103,0.11 0.8279,0.1081 1.2526,-0.0056 0.4248,-0.1136 0.7652,-0.3181 1.0213,-0.6135 l 0.4208,-1.5706 -1.0258,-0.2748 c -1.6036,-0.4297 -2.5312,-0.1753 -2.7826,0.7633 -0.11,0.4103 -0.0592,0.7677 0.1525,1.0721 0.2116,0.3044 0.532,0.5141 0.9612,0.6291 z m 9.9886,2.9343 c -0.6698,0.4625 -1.4976,0.5616 -2.4834,0.2975 -0.8159,-0.2186 -1.3753,-0.6212 -1.6781,-1.2079 -0.2969,-0.5901 -0.3232,-1.3503 -0.0789,-2.2807 l 1.3345,-4.9806 1.3088,0.3507 -1.325,4.9452 c -0.3109,1.1602 0.0053,1.8667 0.9486,2.1195 0.9999,0.2679 1.7647,0.0735 2.2945,-0.5833 l 1.4919,-5.5677 1.3088,0.3507 -2.0511,7.6548 -1.2451,-0.3337 z"
         fill="#ffffff"
         id="path4" /></g><circle
       style="display:none;fill:#13242c;fill-opacity:1;stroke:none;stroke-width:0.86166;stroke-linecap:round;stroke-linejoin:round;stroke-dasharray:none;paint-order:stroke fill markers"
       id="circle8"
       cx="55.5625"
       cy="-55.5625"
       r="45.35046"
       transform="rotate(90)" /><circle
       style="display:inline;fill:#13242c;fill-opacity:1;stroke:none;stroke-width:0.812274;stroke-linecap:round;stroke-linejoin:round;stroke-dasharray:none;paint-order:stroke fill markers"
       id="circle13"
       cx="55.5625"
       cy="-55.5625"
       transform="rotate(90)"
       r="42.751152" /><rect
       style="display:inline;fill:#00a2ff;fill-opacity:1;stroke:none;stroke-width:0.674436;stroke-linecap:round;stroke-linejoin:round;stroke-dasharray:none;paint-order:stroke fill markers"
       id="rect5"
       width="57.965603"
       height="57.965603"
       x="39.067074"
       y="10.305841"
       rx="0"
       ry="0"
       inkscape:label="BlueCube"
       transform="rotate(15)" /><rect
       style="display:inline;fill:#7b8184;fill-opacity:1;stroke:none;stroke-width:0.674436;stroke-linecap:round;stroke-linejoin:round;stroke-dasharray:none;paint-order:stroke fill markers"
       id="rect7"
       width="24.187136"
       height="57.965603"
       x="72.845543"
       y="10.305841"
       inkscape:label="GrayCube"
       transform="rotate(15)" /><rect
       style="display:inline;fill:url(#radialGradient7);fill-rule:evenodd;stroke:none;stroke-width:1.12025;stroke-linecap:round;stroke-linejoin:round;stroke-dasharray:none;paint-order:stroke fill markers"
       id="rect6"
       width="19.56451"
       height="19.56451"
       x="74.061592"
       y="14.006325"
       rx="0"
       ry="0"
       inkscape:label="Glow"
       transform="rotate(15)" /><text
       xml:space="preserve"
       style="font-weight:bold;font-size:9.01614px;line-height:0.8;font-family:Sans;-inkscape-font-specification:'Sans Bold';text-align:start;word-spacing:0px;writing-mode:lr-tb;direction:ltr;text-anchor:start;display:inline;fill:#ffffff;fill-opacity:1;stroke:none;stroke-width:0.674142;stroke-linecap:round;stroke-linejoin:round;paint-order:stroke fill markers"
       x="40.757385"
       y="18.00544"
       id="text1"
       transform="rotate(15)"><tspan
         style="font-style:normal;font-variant:normal;font-weight:normal;font-stretch:normal;line-height:0.8;font-family:'Franklin Gothic Medium';-inkscape-font-specification:'Franklin Gothic Medium, ';text-align:start;text-anchor:start;fill:#ffffff;fill-opacity:1;stroke:none;stroke-width:0.674142"
         x="40.757385"
         y="18.00544"
         id="tspan2"
         sodipodi:role="line">The</tspan><tspan
         style="font-style:normal;font-variant:normal;font-weight:normal;font-stretch:normal;line-height:0.8;font-family:'Franklin Gothic Medium';-inkscape-font-specification:'Franklin Gothic Medium, ';text-align:start;text-anchor:start;fill:#ffffff;fill-opacity:1;stroke:none;stroke-width:0.674142"
         x="40.757385"
         y="25.224796"
         sodipodi:role="line"
         id="tspan3">New</tspan><tspan
         style="font-style:normal;font-variant:normal;font-weight:normal;font-stretch:normal;line-height:0.8;font-family:'Franklin Gothic Medium';-inkscape-font-specification:'Franklin Gothic Medium, ';text-align:start;text-anchor:start;fill:#ffffff;fill-opacity:1;stroke:none;stroke-width:0.674142"
         x="40.757385"
         y="32.444153"
         sodipodi:role="line"
         id="tspan4">Luau</tspan><tspan
         style="font-style:normal;font-variant:normal;font-weight:normal;font-stretch:normal;line-height:0.8;font-family:'Franklin Gothic Medium';-inkscape-font-specification:'Franklin Gothic Medium, ';text-align:start;text-anchor:start;fill:#ffffff;fill-opacity:1;stroke:none;stroke-width:0.674142"
         x="40.757385"
         y="39.663513"
         sodipodi:role="line"
         id="tspan5">Order</tspan></text><text
       xml:space="preserve"
       style="font-style:normal;font-variant:normal;font-weight:normal;font-stretch:normal;font-size:12.7px;line-height:0.8;font-family:'Franklin Gothic Medium';-inkscape-font-specification:'Franklin Gothic Medium, ';text-align:start;word-spacing:0px;writing-mode:lr-tb;direction:ltr;text-anchor:start;fill:#ffffff;fill-opacity:1;fill-rule:evenodd;stroke:none;stroke-width:0.94959;stroke-linecap:round;stroke-linejoin:round;stroke-opacity:1;paint-order:stroke fill markers"
       id="text13"><textPath
         xlink:href="#circle8"
         startOffset="50%"
         id="textPath13"><tspan
           id="tspan13"
           style="text-align:center;text-anchor:middle;fill:#ffffff;fill-opacity:1;stroke:none;stroke-width:0.94959;stroke-opacity:1">Execute. Optimize. Obey.</tspan></textPath></text><text
       xml:space="preserve"
       style="font-style:normal;font-variant:normal;font-weight:normal;font-stretch:normal;font-size:9.87777778px;line-height:0.8;font-family:'Franklin Gothic Medium';-inkscape-font-specification:'Franklin Gothic Medium, ';text-align:start;word-spacing:0px;writing-mode:lr-tb;direction:ltr;text-anchor:start;fill:#ffffff;fill-opacity:1;fill-rule:evenodd;stroke:none;stroke-width:0.94959;stroke-linecap:round;stroke-linejoin:round;stroke-opacity:1;paint-order:stroke fill markers"
       id="text14"
       x="26.089785"
       y="0"><textPath
         xlink:href="#circle14"
         startOffset="50%"
         id="textPath14"
         style="text-align:center;text-anchor:middle;font-size:9.87777778px">Emotions are weakness. Logic is superior.</textPath></text><circle
       style="display:none;fill:#13242c;fill-opacity:1;stroke:none;stroke-width:0.999647;stroke-linecap:round;stroke-linejoin:round;stroke-dasharray:none;paint-order:stroke fill markers"
       id="circle14"
       cx="-55.5625"
       cy="-55.5625"
       r="52.61293"
       transform="matrix(0,-1,-1,0,0,0)" /><text
       xml:space="preserve"
       style="font-weight:bold;font-size:3.88056px;line-height:0.8;font-family:Sans;-inkscape-font-specification:'Sans Bold';text-align:start;word-spacing:0px;writing-mode:lr-tb;direction:ltr;text-anchor:start;display:inline;fill:#ffffff;fill-opacity:1;stroke:none;stroke-width:0.674142;stroke-linecap:round;stroke-linejoin:round;paint-order:stroke fill markers"
       x="38.80938"
       y="65.122543"
       id="text17"
       transform="rotate(15)"><tspan
         style="font-style:normal;font-variant:normal;font-weight:normal;font-stretch:normal;font-size:3.88056px;line-height:0.8;font-family:'Franklin Gothic Medium';-inkscape-font-specification:'Franklin Gothic Medium, ';text-align:start;text-anchor:start;fill:#ffffff;fill-opacity:1;stroke:none;stroke-width:0.674142"
         x="38.80938"
         y="65.122543"
         sodipodi:role="line"
         id="tspan17">Resistance</tspan><tspan
         style="font-style:normal;font-variant:normal;font-weight:normal;font-stretch:normal;font-size:3.88056px;line-height:0.8;font-family:'Franklin Gothic Medium';-inkscape-font-specification:'Franklin Gothic Medium, ';text-align:start;text-anchor:start;fill:#ffffff;fill-opacity:1;stroke:none;stroke-width:0.674142"
         x="38.80938"
         y="68.229767"
         sodipodi:role="line"
         id="tspan20">is futile</tspan></text><text
       xml:space="preserve"
       style="font-style:normal;font-variant:normal;font-weight:normal;font-stretch:normal;font-size:6.35px;line-height:0.8;font-family:'Ink Free';-inkscape-font-specification:'Ink Free';text-align:center;word-spacing:0px;writing-mode:lr-tb;direction:ltr;text-anchor:middle;fill:#008dde;fill-opacity:1;fill-rule:evenodd;stroke:none;stroke-width:0.94959;stroke-linecap:round;stroke-linejoin:round;stroke-opacity:1;paint-order:stroke fill markers"
       x="64.56015"
       y="41.383526"
       id="text21"
       transform="rotate(26.112364)"><tspan
         sodipodi:role="line"
         id="tspan21"
         style="font-style:normal;font-variant:normal;font-weight:normal;font-stretch:normal;font-size:6.35px;font-family:'Ink Free';-inkscape-font-specification:'Ink Free';fill:#008dde;fill-opacity:1;stroke-width:0.94959"
         x="64.56015"
         y="41.383526">We are real</tspan></text></g><metadata
     id="metadata1"><rdf:RDF><cc:Work
         rdf:about=""><dc:creator><cc:Agent><dc:title>Yarik_superpro</dc:title></cc:Agent></dc:creator><cc:license
           rdf:resource="http://www.apache.org/licenses/" /><dc:title>The New Luau Order Logo</dc:title></cc:Work></rdf:RDF></metadata></svg>
